<svg width="138" height="146" viewBox="0 0 138 146" fill="none" xmlns="http://www.w3.org/2000/svg">
<path fill-rule="evenodd" clip-rule="evenodd" d="M121.346 52.3793C123.008 53.2873 124.871 53.7615 126.765 53.758V53.7518C128.782 53.7416 130.759 53.1912 132.492 52.1579C134.224 51.1247 135.648 49.6461 136.616 47.8761C137.584 46.1061 138.06 44.1092 137.994 42.0931C137.929 40.0769 137.324 38.1151 136.244 36.4115C126.321 20.8089 111.933 8.55241 94.951 1.23541C93.5744 0.532432 92.0681 0.119559 90.5255 0.0223532C88.9828 -0.0748528 87.4366 0.145674 85.9826 0.670295C84.5287 1.19492 83.1979 2.01245 82.0727 3.07227C80.9475 4.13209 80.0519 5.41162 79.4413 6.83163C78.8307 8.25164 78.5181 9.7819 78.5229 11.3276C78.5277 12.8733 78.8498 14.4016 79.4692 15.8178C80.0886 17.234 80.9922 18.5079 82.124 19.5607C83.2557 20.6135 84.5916 21.4227 86.0488 21.9383C98.888 27.4813 109.763 36.7583 117.26 48.5635C118.279 50.1589 119.685 51.4713 121.346 52.3793ZM58.5892 28.7891C24.3353 28.7891 0 53.1244 0 87.3783C0 121.858 24.3353 145.967 58.5892 145.967C92.8431 145.967 117.178 121.883 117.178 87.3783C117.178 53.1244 92.8431 28.7891 58.5892 28.7891ZM58.5892 49.2975C80.2143 49.2975 94.6436 64.6177 94.6436 87.3783C94.6436 110.158 80.2206 125.214 58.5892 125.214C37.1837 125.214 22.5348 110.139 22.5348 87.3783C22.5348 64.6177 37.1837 49.2975 58.5892 49.2975Z" fill="#ED832D"/>
</svg>
